# xmcd
#
# Track frame offsets:
#	225
#	11788
#	26956
#	38134
#	51159
#	62615
#	75452
#	89221
#	98508
#	113504
#	124284
#	136639
#	149163
#	161064
#	172762
#	186685
#	199754
#	212810
#	223435
#	233561
#	246511
#	259227
#	270945
#	283705
#
# Disc length: 3948 seconds
#
# Revision: 0
# Processed by: cddbd v1.5.1PL2 Copyright (c) Steve Scherf et al.
# Submitted via: EasyCDDAExtractor 9.0.0.1
#
DISCID=6e0f6918
DTITLE=Ronnie Aldrich - All-Time Piano Hits/Melody And Percussion for Two Pian
DTITLE=os
DYEAR=2005
DGENRE=Bass
TTITLE0=Miserlou
TTITLE1=Bewitched
TTITLE2=Nola
TTITLE3=Stardust
TTITLE4=Near You
TTITLE5=Dancing In The Dark
TTITLE6=Autumn Leaves
TTITLE7=Voodoo Moon
TTITLE8=As Time Goes By
TTITLE9=Inka Dinka Doo
TTITLE10=Canadian Sunset
TTITLE11=Exodus
TTITLE12=Unforgettable
TTITLE13=Secret Love
TTITLE14=To Each His Own
TTITLE15=Ruby
TTITLE16=April In Portugal
TTITLE17=My One And Only Love
TTITLE18=Autumn Leaves
TTITLE19=Misty
TTITLE20=Golden Earrrings
TTITLE21=Young At Heart
TTITLE22=April Love
TTITLE23=The Gypsy
EXTD=
EXTT0=
EXTT1=
EXTT2=
EXTT3=
EXTT4=
EXTT5=
EXTT6=
EXTT7=
EXTT8=
EXTT9=
EXTT10=
EXTT11=
EXTT12=
EXTT13=
EXTT14=
EXTT15=
EXTT16=
EXTT17=
EXTT18=
EXTT19=
EXTT20=
EXTT21=
EXTT22=
EXTT23=
PLAYORDER=
